<svg xmlns="http://www.w3.org/2000/svg" aria-hidden="true" focusable="false" style="position:absolute;width:0;height:0;overflow:hidden">
  <symbol id="app-icon-chevron-right" viewBox="0 0 16 16">
    <path d="M6 3.5 10.5 8 6 12.5" fill="none" stroke="currentColor" stroke-linecap="round" stroke-linejoin="round" stroke-width="1.8"/>
  </symbol>

  <symbol id="app-icon-info" viewBox="0 0 20 20">
    <circle cx="10" cy="10" r="8" fill="none" stroke="currentColor" stroke-width="1.8"/>
    <path d="M10 8v4" fill="none" stroke="currentColor" stroke-linecap="round" stroke-width="1.8"/>
    <circle cx="10" cy="5.5" r="1" fill="currentColor"/>
  </symbol>

  <symbol id="app-icon-compass" viewBox="0 0 20 20">
    <circle cx="10" cy="10" r="7.5" fill="none" stroke="currentColor" stroke-width="1.6"/>
    <path d="m8 12 1.6-4.4L14 6l-1.6 4.4z" fill="currentColor"/>
  </symbol>

  <symbol id="app-icon-landmark-outline" viewBox="0 0 24 24">
    <path d="M4 19.5h16M6 17V9.8m4 7.2V9.8m4 7.2V9.8m4 7.2V9.8M3.5 8.5 12 4l8.5 4.5H3.5Z" fill="none" stroke="currentColor" stroke-linecap="round" stroke-linejoin="round" stroke-width="1.8"/>
  </symbol>

  <symbol id="app-icon-network" viewBox="0 0 24 24">
    <path d="M12 6v4m0 4v4M6 10h12M7 18h10M5.5 5.5h13v3h-13zm-2 10h5v3h-5zm15 0h5v3h-5z" fill="none" stroke="currentColor" stroke-linecap="round" stroke-linejoin="round" stroke-width="1.8"/>
  </symbol>

  <symbol id="app-icon-spacing" viewBox="0 0 24 24">
    <path d="M6 5.5v13M18 5.5v13M9 8.5h6M9 12h6M9 15.5h6" fill="none" stroke="currentColor" stroke-linecap="round" stroke-linejoin="round" stroke-width="1.8"/>
    <path d="m4.5 8 1.5-2 1.5 2M4.5 16l1.5 2 1.5-2M16.5 8 18 6l1.5 2M16.5 16 18 18l1.5-2" fill="none" stroke="currentColor" stroke-linecap="round" stroke-linejoin="round" stroke-width="1.6"/>
  </symbol>

  <symbol id="app-icon-sliders" viewBox="0 0 20 20">
    <path d="M4 5h12M4 10h12M4 15h12M7 5a1.5 1.5 0 1 0 0 .01M13 10a1.5 1.5 0 1 0 0 .01M9 15a1.5 1.5 0 1 0 0 .01" fill="none" stroke="currentColor" stroke-linecap="round" stroke-linejoin="round" stroke-width="1.8"/>
  </symbol>

  <symbol id="app-icon-layers" viewBox="0 0 20 20">
    <path d="M10 3.5 16 6.8 10 10 4 6.8 10 3.5Zm6 5.7L10 12.5 4 9.2m12 3.5L10 16l-6-3.3" fill="none" stroke="currentColor" stroke-linecap="round" stroke-linejoin="round" stroke-width="1.6"/>
  </symbol>

  <symbol id="app-icon-paper-plane" viewBox="0 0 20 20">
    <path d="m3.5 10 12.5-5-3.8 10-2.6-3-2.6-2z" fill="none" stroke="currentColor" stroke-linecap="round" stroke-linejoin="round" stroke-width="1.6"/>
    <path d="m9.6 12-1 3.5" fill="none" stroke="currentColor" stroke-linecap="round" stroke-width="1.6"/>
  </symbol>

  <symbol id="app-icon-arrow-left" viewBox="0 0 20 20">
    <path d="M11.5 4.5 6 10l5.5 5.5M6.5 10h8" fill="none" stroke="currentColor" stroke-linecap="round" stroke-linejoin="round" stroke-width="1.8"/>
  </symbol>

  <symbol id="app-icon-check-circle" viewBox="0 0 20 20">
    <circle cx="10" cy="10" r="8" fill="none" stroke="currentColor" stroke-width="1.8"/>
    <path d="m6.5 10.2 2.2 2.2 4.8-4.8" fill="none" stroke="currentColor" stroke-linecap="round" stroke-linejoin="round" stroke-width="1.8"/>
  </symbol>

  <symbol id="app-icon-spinner" viewBox="0 0 20 20">
    <circle cx="10" cy="10" r="7" fill="none" stroke="currentColor" stroke-opacity="0.28" stroke-width="2"/>
    <path d="M10 3a7 7 0 0 1 7 7" fill="none" stroke="currentColor" stroke-linecap="round" stroke-width="2"/>
  </symbol>
</svg>
